<svg viewBox="0 0 24 24" xmlns="http://www.w3.org/2000/svg"><path d="M20.682 5.64a.56.56 0 0 0-.432-.202H4.969l-.485-2.672a1.31 1.31 0 0 0-1.292-1.078H1.5a.563.563 0 1 0 0 1.125h1.688a.19.19 0 0 1 .187.153L5.767 16.12c.075.42.28.806.585 1.104a2.437 2.437 0 1 0 3.575.59h4.896a2.438 2.438 0 1 0 2.052-1.125H7.797a.94.94 0 0 1-.922-.77l-.338-1.855h11.097a2.06 2.06 0 0 0 2.03-1.694l1.14-6.269a.56.56 0 0 0-.122-.46M9.188 19.125a1.313 1.313 0 1 1-2.626 0 1.313 1.313 0 0 1 2.625 0m9 0a1.313 1.313 0 1 1-2.626 0 1.313 1.313 0 0 1 2.626 0m.369-6.957a.94.94 0 0 1-.923.77h-11.3L5.174 6.562h14.402z"/></svg>