<svg viewBox="0 0 24 24" xmlns="http://www.w3.org/2000/svg"><path d="M15.188 7.5a.563.563 0 0 1 .562-.562h6a.562.562 0 1 1 0 1.125h-6a.56.56 0 0 1-.562-.563m7.874 6.75a.56.56 0 0 1-.562.563h-6.89a3.197 3.197 0 0 0 4.36 2.384A3.1 3.1 0 0 0 21 16.5a.572.572 0 0 1 .922.182.55.55 0 0 1-.125.615 4.313 4.313 0 1 1 1.265-3.047m-1.171-.562a3.187 3.187 0 0 0-6.282 0zm-8.953 1.124a3.75 3.75 0 0 1-3.75 3.75H3A.563.563 0 0 1 2.438 18V6A.563.563 0 0 1 3 5.438h5.063a3.375 3.375 0 0 1 2.324 5.821 3.75 3.75 0 0 1 2.55 3.553m-9.375-3.75h4.5a2.25 2.25 0 0 0 0-4.5h-4.5zm8.25 3.75a2.634 2.634 0 0 0-2.626-2.624H3.564v5.25h5.624a2.634 2.634 0 0 0 2.626-2.625"/></svg>