<svg viewBox="0 0 24 24" xmlns="http://www.w3.org/2000/svg"><path d="M21.563 12.066V12a9.53 9.53 0 0 0-3.535-7.416l-.047-.046-.047-.038A9.5 9.5 0 0 0 12 2.438a9.4 9.4 0 0 0-4.134.946l-.113.047a9.61 9.61 0 0 0-5.128 6.685v.018A9.3 9.3 0 0 0 2.438 12a9.55 9.55 0 0 0 3.834 7.65l.094.075h.018a9.53 9.53 0 0 0 8.794 1.294l.056-.019a9.59 9.59 0 0 0 6.329-8.916zm-1.144-.6a15.4 15.4 0 0 0-5.156.563A16.5 16.5 0 0 0 13.913 9l-.047-.066a15.8 15.8 0 0 0 3.825-3.159 8.4 8.4 0 0 1 2.728 5.69m-3.61-6.394a14.3 14.3 0 0 1-3.553 2.916 15.7 15.7 0 0 0-3.984-3.975 8.45 8.45 0 0 1 7.537 1.059m-8.775-.516a14.4 14.4 0 0 1 4.22 3.966 14.5 14.5 0 0 1-8.391 1.256 8.46 8.46 0 0 1 4.171-5.222M3.562 12q.003-.56.076-1.116A17 17 0 0 0 6 11.062c2.383.005 4.735-.54 6.872-1.593l.066.103a14.7 14.7 0 0 1 1.256 2.803 15 15 0 0 0-2.447 1.134 15.5 15.5 0 0 0-5.222 4.904A8.43 8.43 0 0 1 3.562 12m3.863 7.087a14.6 14.6 0 0 1 7.069-5.634c.27 1.111.405 2.25.403 3.394a14 14 0 0 1-.356 3.197 8.42 8.42 0 0 1-7.116-.957m8.372.45q.225-1.335.225-2.69c.001-1.26-.15-2.517-.45-3.74a14.6 14.6 0 0 1 4.847-.516 8.46 8.46 0 0 1-4.622 6.947"/></svg>