<svg viewBox="0 0 18 21" xmlns="http://www.w3.org/2000/svg"><path d="M1.916 2.375a.563.563 0 0 0-.832.75l1.228 1.35q-.404-.038-.812-.038A.563.563 0 0 0 .938 5v7.5A8.07 8.07 0 0 0 9 20.563a8.05 8.05 0 0 0 5.745-2.407l1.339 1.469a.564.564 0 0 0 .832-.758zm1.672 3.508 6.431 7.074A8 8 0 0 0 9 14.797a8.08 8.08 0 0 0-6.937-5.088V5.584c.518.042 1.03.142 1.525.3m4.85 13.532A6.947 6.947 0 0 1 2.061 12.5v-1.665a6.947 6.947 0 0 1 6.376 6.915zm1.124 0V17.75a6.94 6.94 0 0 1 1.23-3.937l3.194 3.512a6.92 6.92 0 0 1-4.424 2.09M17.063 5v7.5a8 8 0 0 1-.288 2.144.564.564 0 0 1-1.085-.298 7 7 0 0 0 .248-1.846v-1.665a6.8 6.8 0 0 0-2.574.727.565.565 0 0 1-.756-.246.56.56 0 0 1 .246-.757c.96-.49 2.01-.778 3.085-.85V5.584a6.97 6.97 0 0 0-5.063 2.85.562.562 0 1 1-.911-.657 8.1 8.1 0 0 1 2.447-2.222c-.905-2.024-2.743-3.26-3.414-3.656a9.5 9.5 0 0 0-2.336 1.968.563.563 0 1 1-.859-.726c.826-.97 1.824-1.78 2.944-2.388a.56.56 0 0 1 .502 0c.125.063 2.887 1.471 4.171 4.306a8 8 0 0 1 3.081-.622.56.56 0 0 1 .563.563"/></svg>