<svg viewBox="0 0 24 24" xmlns="http://www.w3.org/2000/svg"><path d="M12 7.688a4.313 4.313 0 1 0 0 8.625 4.313 4.313 0 0 0 0-8.625m0 7.5A3.187 3.187 0 1 1 15.188 12 3.197 3.197 0 0 1 12 15.188m4.125-12.375h-8.25a5.063 5.063 0 0 0-5.062 5.062v8.25a5.06 5.06 0 0 0 5.062 5.063h8.25a5.06 5.06 0 0 0 5.063-5.063v-8.25a5.063 5.063 0 0 0-5.063-5.062m3.938 13.312a3.937 3.937 0 0 1-3.938 3.938h-8.25a3.937 3.937 0 0 1-3.937-3.938v-8.25a3.937 3.937 0 0 1 3.937-3.937h8.25a3.937 3.937 0 0 1 3.938 3.937zm-2.25-9a.938.938 0 1 1-1.876 0 .938.938 0 0 1 1.876 0"/></svg>