<svg viewBox="0 0 24 24" xmlns="http://www.w3.org/2000/svg"><path d="M20.76 3.768a.56.56 0 0 0-.528-.529c-7.067-.416-12.719 1.703-15.12 5.667-1.635 2.7-1.571 5.888.168 9.019l-1.928 1.927a.563.563 0 1 0 .796.796l1.927-1.928c1.62.899 3.253 1.35 4.827 1.35a8 8 0 0 0 4.192-1.182c3.964-2.401 6.082-8.053 5.667-15.12m-6.248 14.156c-2.258 1.367-4.935 1.347-7.606-.037l8.492-8.492a.562.562 0 0 0-.795-.795l-8.492 8.494c-1.384-2.67-1.407-5.343-.037-7.606C8.2 5.98 13.258 4.07 19.668 4.337c.262 6.405-1.647 11.464-5.156 13.589z"/></svg>