<svg viewBox="0 0 24 24" xmlns="http://www.w3.org/2000/svg"><path d="M16.5 20.813C9.16 20.813 3.188 14.84 3.188 7.5a5.07 5.07 0 0 1 4.425-5.025 1.31 1.31 0 0 1 1.359.787l1.884 4.397a1.32 1.32 0 0 1-.103 1.238l-1.565 2.381a.2.2 0 0 0-.01.178 7.33 7.33 0 0 0 3.394 3.385.18.18 0 0 0 .178-.02l2.353-1.565a1.3 1.3 0 0 1 1.238-.112l4.397 1.884a1.31 1.31 0 0 1 .787 1.36 5.07 5.07 0 0 1-5.025 4.424M7.772 3.59h-.019a3.956 3.956 0 0 0-3.44 3.91A12.197 12.197 0 0 0 16.5 19.688a3.956 3.956 0 0 0 3.91-3.441.19.19 0 0 0-.113-.188L15.9 14.175a.2.2 0 0 0-.178.019l-2.344 1.565a1.33 1.33 0 0 1-1.294.094 8.5 8.5 0 0 1-3.918-3.91 1.31 1.31 0 0 1 .084-1.284l1.556-2.38a.18.18 0 0 0 .019-.179L7.941 3.703a.19.19 0 0 0-.17-.112"/></svg>