<svg viewBox="0 0 24 24" xmlns="http://www.w3.org/2000/svg"><path d="M23.016 6.534a.56.56 0 0 0-.516-.346h-2.962a4.31 4.31 0 0 0-3.732-2.25 4.35 4.35 0 0 0-4.368 4.312v.816c-3.975-.947-7.257-4.182-7.294-4.21a.562.562 0 0 0-.947.29c-.816 4.463.525 7.445 1.79 9.16a9.9 9.9 0 0 0 2.438 2.353c-1.453 1.763-3.844 2.682-3.872 2.691a.55.55 0 0 0-.337.356.54.54 0 0 0 .065.478c.094.141 1.013 1.378 4.219 1.378 6.534 0 12-5.053 12.525-11.54l2.869-2.878a.53.53 0 0 0 .122-.61m-3.938 2.841a.54.54 0 0 0-.16.366c-.384 6-5.4 10.697-11.418 10.697-1.303 0-2.137-.226-2.634-.45 1.059-.535 2.793-1.585 3.853-3.179a.58.58 0 0 0 .075-.45.57.57 0 0 0-.29-.365c-.02 0-1.426-.732-2.645-2.4-1.453-1.988-2.025-4.416-1.706-7.219 1.369 1.163 4.322 3.356 7.753 3.928a.553.553 0 0 0 .656-.553v-1.5a3.216 3.216 0 0 1 3.226-3.187 3.21 3.21 0 0 1 2.887 1.912.55.55 0 0 0 .516.338h1.95z"/></svg>